<svg width="212" height="82" viewBox="0 0 212 82" fill="none" xmlns="http://www.w3.org/2000/svg">
<path d="M0.333333 3C0.333333 4.47276 1.52724 5.66667 3 5.66667C4.47276 5.66667 5.66667 4.47276 5.66667 3C5.66667 1.52724 4.47276 0.333333 3 0.333333C1.52724 0.333333 0.333333 1.52724 0.333333 3ZM95 81L97.8867 76H92.1133L95 81ZM95 3H95.5V2.5H95V3ZM3 3.5H95V2.5H3V3.5ZM94.5 3V76.5H95.5V3H94.5Z" fill="white"/>
<path d="M211.667 4C211.667 5.47276 210.473 6.66667 209 6.66667C207.527 6.66667 206.333 5.47276 206.333 4C206.333 2.52724 207.527 1.33333 209 1.33333C210.473 1.33333 211.667 2.52724 211.667 4ZM117 82L114.113 77H119.887L117 82ZM117 4H116.5V3.5H117V4ZM209 4.5H117V3.5H209V4.5ZM117.5 4V77.5H116.5V4H117.5Z" fill="white"/>
</svg>
